<?xml version="1.0" encoding="utf-8"?>
<!-- Svg Vector Icons : http://www.onlinewebfonts.com/icon -->
<!DOCTYPE svg PUBLIC "-//W3C//DTD SVG 1.1//EN" "http://www.w3.org/Graphics/SVG/1.1/DTD/svg11.dtd">
<svg version="1.1" xmlns="http://www.w3.org/2000/svg" xmlns:xlink="http://www.w3.org/1999/xlink" x="0px" y="0px" viewBox="0 0 256 256" enable-background="new 0 0 256 256" xml:space="preserve">
<metadata> Svg Vector Icons : http://www.onlinewebfonts.com/icon </metadata>
<g><g><path fill="#000000" d="M128,10C62.8,10,10,62.8,10,128c0,65.2,52.8,118,118,118c65.2,0,118-52.8,118-118C246,62.8,193.2,10,128,10z M128,243.7c-63.9,0-115.7-51.8-115.7-115.7S64.1,12.3,128,12.3S243.7,64.1,243.7,128S191.9,243.7,128,243.7z"/><path fill="#000000" d="M151.7,92.1c0.4,0.9,1.1,6.5,2.4,9.1l9.2,0.2c6.7,0,11.6,3.8,11.6,10.4l0,25l-0.3,0.5h2.6V112c0-7-5.3-12.4-12.3-12.4h-8.2c-1.3-2.7-2.6-8.3-3.1-9.3c-0.8-1.8-2.2-3.9-5.6-5.2h-41.1c-3.5,1.3-4.8,3.4-5.6,5.2c-0.5,1-1.8,6.6-3.1,9.3h-9.2c-7,0-12.3,5.4-12.3,12.4v46.4c0,7,5.3,12.4,12.3,12.4h64l0,0h-1.1v-2.4l-0.1,0.1H89.3c-6.7,0-10.4-3.8-10.4-10.4v-45.2c0-6.6,4.9-11.5,11.6-11.5l10.2-0.2c1.3-2.5,2.1-8.1,2.6-9.1c0.8-1.7,1.3-3.4,4.6-4.6H147C150.3,88.7,150.9,90.5,151.7,92.1z M127.4,110.6c-12.1,0-22,9.8-22,22c0,12.1,9.8,22,22,22c12.1,0,22-9.8,22-22C149.4,120.5,139.6,110.6,127.4,110.6z M127.4,151.9c-11,0-19.7-8.4-19.7-19.3c0-10.9,8.8-19.7,19.7-19.7c10.9,0,19.7,8.8,19.7,19.7C147.1,143.5,138.4,151.9,127.4,151.9z M170.2,155.8v-9.2h-2.3v9.2h-9.2v2.3h9.2v9.2h2.3v-9.2h9.2v-2.3H170.2z"/></g></g>
</svg>